HIERARCHY
ROOT Hips
{
  OFFSET 0.0793595 82.2344 2.42657
  CHANNELS 6 Xposition Yposition Zposition Zrotation Xrotation Yrotation
  JOINT Spine
  {
    OFFSET 0 10.1816 0.1315
    CHANNELS 6 Xposition Yposition Zposition Zrotation Xrotation Yrotation
    JOINT Spine1
    {
      OFFSET 0 10.0835 -1.0008
      CHANNELS 6 Xposition Yposition Zposition Zrotation Xrotation Yrotation
      JOINT Spine2
      {
        OFFSET 0 9.1 -1.3734
        CHANNELS 6 Xposition Yposition Zposition Zrotation Xrotation Yrotation
        JOINT Neck1
        {
          OFFSET 0 16.6717 -2.5162
          CHANNELS 6 Xposition Yposition Zposition Zrotation Xrotation Yrotation
          JOINT Neck2
          {
            OFFSET 0 9.6179 1.685
            CHANNELS 6 Xposition Yposition Zposition Zrotation Xrotation Yrotation
            JOINT Skull
            {
              OFFSET 0 7.59293 2.585
              CHANNELS 6 Xposition Yposition Zposition Zrotation Xrotation Yrotation
              End Site
              {
                OFFSET 0 0 0
              }
            }
          }
        }
        JOINT LeftShoulder
        {
          OFFSET 4.5704 10.946 -2.628
          CHANNELS 6 Xposition Yposition Zposition Zrotation Xrotation Yrotation
          JOINT LeftArm
          {
            OFFSET 10.5924 -0.5246 -2.2321
            CHANNELS 6 Xposition Yposition Zposition Zrotation Xrotation Yrotation
            JOINT LeftForeArm
            {
              OFFSET 27.8415 -0.0001 0
              CHANNELS 6 Xposition Yposition Zposition Zrotation Xrotation Yrotation
              JOINT LeftHand
              {
                OFFSET 28.3288 0 0
                CHANNELS 6 Xposition Yposition Zposition Zrotation Xrotation Yrotation
                JOINT LeftHandThumb1
                {
                  OFFSET 2.4661 -1.575 2.6824
                  CHANNELS 6 Xposition Yposition Zposition Zrotation Xrotation Yrotation
                  JOINT LeftHandThumb2
                  {
                    OFFSET 3.2298 -1.8647 1.8647
                    CHANNELS 6 Xposition Yposition Zposition Zrotation Xrotation Yrotation
                    End Site
                    {
                      OFFSET 2.6526 -1.5315 1.5315
                    }
                  }
                }
                JOINT LeftHandIndex1
                {
                  OFFSET 9.1093 -0.5171 2.2601
                  CHANNELS 6 Xposition Yposition Zposition Zrotation Xrotation Yrotation
                  JOINT LeftHandIndex2
                  {
                    OFFSET 3.6764 0 0
                    CHANNELS 6 Xposition Yposition Zposition Zrotation Xrotation Yrotation
                    End Site
                    {
                      OFFSET 2.8831 0 0
                    }
                  }
                }
                JOINT LeftHandMiddle1
                {
                  OFFSET 9.5334 0 0
                  CHANNELS 6 Xposition Yposition Zposition Zrotation Xrotation Yrotation
                  JOINT LeftHandMiddle2
                  {
                    OFFSET 3.6982 0 0
                    CHANNELS 6 Xposition Yposition Zposition Zrotation Xrotation Yrotation
                    End Site
                    {
                      OFFSET 2.9509 0 0
                    }
                  }
                }
                JOINT LeftHandRing1
                {
                  OFFSET 9.1045 -0.0439 -1.8651
                  CHANNELS 6 Xposition Yposition Zposition Zrotation Xrotation Yrotation
                  JOINT LeftHandRing2
                  {
                    OFFSET 3.154 0 0
                    CHANNELS 6 Xposition Yposition Zposition Zrotation Xrotation Yrotation
                    End Site
                    {
                      OFFSET 2.9377 0 0
                    }
                  }
                }
                JOINT LeftHandPinky1
                {
                  OFFSET 8.0778 -0.4887 -3.8061
                  CHANNELS 6 Xposition Yposition Zposition Zrotation Xrotation Yrotation
                  JOINT LeftHandPinky2
                  {
                    OFFSET 3.6 0 0
                    CHANNELS 6 Xposition Yposition Zposition Zrotation Xrotation Yrotation
                    End Site
                    {
                      OFFSET 2.1142 0 0
                    }
                  }
                }
              }
            }
          }
        }
        JOINT RightShoulder
        {
          OFFSET -4.57 10.9462 -2.628
          CHANNELS 6 Xposition Yposition Zposition Zrotation Xrotation Yrotation
          JOINT RightArm
          {
            OFFSET -10.5928 -0.5248 -2.2321
            CHANNELS 6 Xposition Yposition Zposition Zrotation Xrotation Yrotation
            JOINT RightForeArm
            {
              OFFSET -27.8415 0 0
              CHANNELS 6 Xposition Yposition Zposition Zrotation Xrotation Yrotation
              JOINT RightHand
              {
                OFFSET -28.3288 0 0.0001
                CHANNELS 6 Xposition Yposition Zposition Zrotation Xrotation Yrotation
                JOINT RightHandPinky1
                {
                  OFFSET -8.0767 -0.4885 -3.806
                  CHANNELS 6 Xposition Yposition Zposition Zrotation Xrotation Yrotation
                  JOINT RightHandPinky2
                  {
                    OFFSET -3.6 0 0.0001
                    CHANNELS 6 Xposition Yposition Zposition Zrotation Xrotation Yrotation
                    End Site
                    {
                      OFFSET -2.1142 0 0
                    }
                  }
                }
                JOINT RightHandRing1
                {
                  OFFSET -9.1036 -0.0439 -1.8651
                  CHANNELS 6 Xposition Yposition Zposition Zrotation Xrotation Yrotation
                  JOINT RightHandRing2
                  {
                    OFFSET -3.154 0 0
                    CHANNELS 6 Xposition Yposition Zposition Zrotation Xrotation Yrotation
                    End Site
                    {
                      OFFSET -2.9377 0 0
                    }
                  }
                }
                JOINT RightHandMiddle1
                {
                  OFFSET -9.5325 0 0
                  CHANNELS 6 Xposition Yposition Zposition Zrotation Xrotation Yrotation
                  JOINT RightHandMiddle2
                  {
                    OFFSET -3.6982 0 0
                    CHANNELS 6 Xposition Yposition Zposition Zrotation Xrotation Yrotation
                    End Site
                    {
                      OFFSET -2.9509 0 0
                    }
                  }
                }
                JOINT RightHandIndex1
                {
                  OFFSET -9.1083 -0.5168 2.2601
                  CHANNELS 6 Xposition Yposition Zposition Zrotation Xrotation Yrotation
                  JOINT RightHandIndex2
                  {
                    OFFSET -3.6764 0 0
                    CHANNELS 6 Xposition Yposition Zposition Zrotation Xrotation Yrotation
                    End Site
                    {
                      OFFSET -2.8831 0 0
                    }
                  }
                }
                JOINT RightHandThumb1
                {
                  OFFSET -2.4648 -1.5727 2.6826
                  CHANNELS 6 Xposition Yposition Zposition Zrotation Xrotation Yrotation
                  JOINT RightHandThumb2
                  {
                    OFFSET -3.2298 -1.8647 1.8647
                    CHANNELS 6 Xposition Yposition Zposition Zrotation Xrotation Yrotation
                    End Site
                    {
                      OFFSET -2.6526 -1.5314 1.5314
                    }
                  }
                }
              }
            }
          }
        }
      }
    }
  }
  JOINT LeftUpLeg
  {
    OFFSET 8.2078 -6.7517 -1.5996
    CHANNELS 6 Xposition Yposition Zposition Zrotation Xrotation Yrotation
    JOINT LeftLeg
    {
      OFFSET 0 -44.3705 0.2846
      CHANNELS 6 Xposition Yposition Zposition Zrotation Xrotation Yrotation
      JOINT LeftFoot
      {
        OFFSET 0 -44.4279 -2.9822
        CHANNELS 6 Xposition Yposition Zposition Zrotation Xrotation Yrotation
        End Site
        {
          OFFSET 0 -8.7287 10.7106
        }
      }
    }
  }
  JOINT RightUpLeg
  {
    OFFSET -8.2078 -6.7517 -1.5996
    CHANNELS 6 Xposition Yposition Zposition Zrotation Xrotation Yrotation
    JOINT RightLeg
    {
      OFFSET 0 -44.3705 0.2862
      CHANNELS 6 Xposition Yposition Zposition Zrotation Xrotation Yrotation
      JOINT RightFoot
      {
        OFFSET 0 -44.4277 -2.9838
        CHANNELS 6 Xposition Yposition Zposition Zrotation Xrotation Yrotation
        End Site
        {
          OFFSET 0 -8.7287 10.7106
        }
      }
    }
  }
}
MOTION
Frames:	4
Frame Time:	0.0333333
7.34859 97.9353 -11.7225 0.128303 12.0258 9.02773 1.77636e-015 10.1816 0.1315 -0.746587 4.57557 -1.51747 0 10.0835 -1.0008 3.12209 0.929538 -2.87844 0 9.1 -1.3734 3.12764 0.946778 -2.89417 -3.55271e-015 16.6717 -2.5162 1.52272 -1.57517 0.315412 0 9.6179 1.685 1.52271 -1.57518 0.315414 0 7.59293 2.585 1.52272 -1.57517 0.315409 4.5704 10.946 -2.628 3.12429 0.0377354 -0.530985 10.5924 -0.5246 -2.2321 -45.1522 -24.4166 -36.785 27.8415 -0.0001 0 -11.7353 -7.71394 -113.468 28.3288 2.84217e-014 7.10543e-015 -11.7932 -66.1873 -17.9859 2.4661 -1.575 2.6824 6.06118 18.008 20.5287 3.2298 -1.8647 1.8647 -0.0804353 1.27567 5.82183 9.1093 -0.5171 2.2601 -84.2703 -6.16134 9.78918 3.6764 0 0 -81.7402 -5.01524 5.7946 9.5334 0 1.42109e-014 -77.4789 -7.09536 4.8466 3.6982 -1.42109e-014 0 -65.5116 -3.42879 5.3272 9.1045 -0.0439 -1.8651 -85.3984 -8.08024 3.73552 3.154 -2.84217e-014 0 -61.5174 -3.0632 5.14475 8.0778 -0.4887 -3.8061 -86.3636 -12.4443 0.886335 3.6 0 0 -95.6598 -6.43171 5.82689 -4.57 10.9462 -2.628 4.63831 -1.75503 -10.4485 -10.5928 -0.5248 -2.2321 47.6597 -26.2076 35.1267 -27.8415 -1.42109e-014 7.10543e-015 12.7875 -7.17018 121.579 -28.3288 0 0.0001 29.8511 -54.7379 34.6303 -8.0767 -0.4885 -3.806 72.0236 -10.722 9.26548 -3.6 -1.42109e-014 0.0001 86.8325 -1.10324 -2.94448 -9.1036 -0.0439 -1.8651 75.2338 -4.93431 1.53402 -3.154 2.84217e-014 1.42109e-014 55.7652 0.392656 -2.43761 -9.5325 -7.10543e-015 7.10543e-015 68.3286 -4.19262 0.606099 -3.6982 0 -1.42109e-014 62.4586 0.0970239 -2.61445 -9.1083 -0.5168 2.2601 80.6714 1.03709 1.56083 -3.6764 2.84217e-014 7.10543e-015 79.2017 -0.714612 -2.89661 -2.4648 -1.5727 2.6826 -10.2925 9.72859 -13.1239 -3.2298 -1.8647 1.8647 -0.854692 1.77981 -7.32109 8.2078 -6.7517 -1.5996 6.4757 -4.38695 16.5564 0 -44.3705 0.2846 2.55357 32.3745 -3.61168 0 -44.4279 -2.9822 -3.69412 11.5403 -1.96002 -8.2078 -6.7517 -1.5996 -9.79818 -40.0949 -12.4041 0 -44.3705 0.2862 4.29167 42.3786 -4.74975 0 -44.4277 -2.9838 -1.34175 -8.70247 1.93136 
7.12554 98.9535 -13.9653 -0.838367 14.451 9.51126 0 10.1816 0.1315 0.422973 3.56859 -0.984946 0 10.0835 -1.0008 1.99835 3.81078 -2.32293 0 9.1 -1.3734 1.98302 3.80121 -2.32347 0 16.6717 -2.5162 0.763537 -1.7349 0.466805 3.55271e-015 9.6179 1.685 0.763532 -1.73492 0.466806 3.55271e-015 7.59293 2.585 0.763546 -1.73487 0.466795 4.5704 10.946 -2.628 10.0573 -0.409886 -3.73865 10.5924 -0.5246 -2.2321 -49.523 -42.6853 -48.966 27.8415 -0.0001 -7.10543e-015 -11.1687 -7.93379 -109.307 28.3288 0 3.55271e-015 -23.8768 -73.7875 -26.7004 2.4661 -1.575 2.6824 6.9035 16.7181 19.2145 3.2298 -1.8647 1.8647 -0.0563014 1.31271 5.8522 9.1093 -0.5171 2.2601 -82.8401 -5.80259 8.93109 3.6764 1.42109e-014 -1.42109e-014 -80.8086 -4.92116 5.7801 9.5334 0 0 -76.5325 -7.12171 3.95938 3.6982 0 -1.42109e-014 -64.9893 -3.38027 5.30482 9.1045 -0.0439 -1.8651 -84.8475 -8.16194 2.7687 3.154 -1.42109e-014 1.42109e-014 -61.2245 -3.0369 5.1304 8.0778 -0.4887 -3.8061 -86.4168 -11.726 -0.483767 3.6 0 -1.42109e-014 -95.274 -6.39258 5.83067 -4.57 10.9462 -2.628 -1.82506 -1.85497 -13.7089 -10.5928 -0.5248 -2.2321 59.0833 -37.7646 56.1769 -27.8415 1.42109e-014 1.42109e-014 11.6852 -7.73524 113.096 -28.3288 0 0.0001 42.0655 -65.7165 45.9748 -8.0767 -0.4885 -3.806 69.5951 -10.9835 8.75543 -3.6 0 0.0001 85.0819 -1.01329 -2.93805 -9.1036 -0.0439 -1.8651 74.0328 -4.72708 0.813696 -3.154 0 1.42109e-014 55.1082 0.420504 -2.41842 -9.5325 -7.10543e-015 0 68.5063 -3.95356 -1.1596 -3.6982 0 0 62.3507 0.101945 -2.61188 -9.1083 -0.5168 2.2601 80.8509 1.1144 -0.23872 -3.6764 2.84217e-014 0 79.5512 -0.7323 -2.89994 -2.4648 -1.5727 2.6826 -9.7129 11.3084 -13.2053 -3.2298 -1.8647 1.8647 -0.86806 1.78986 -7.3133 8.2078 -6.7517 -1.5996 11.6497 -18.5411 17.8118 7.10543e-015 -44.3705 0.2846 -0.515572 54.9678 -4.03386 0 -44.4279 -2.9822 0.922433 9.98198 -2.80463 -8.2078 -6.7517 -1.5996 -7.29307 -40.3214 -10.405 0 -44.3705 0.2862 3.87234 45.2665 -5.90681 0 -44.4277 -2.9838 -2.24003 -5.00703 2.0807 
6.75841 98.5569 -15.9609 -1.04013 14.2775 8.95439 0 10.1816 0.1315 0.894483 6.12853 -0.90323 0 10.0835 -1.0008 1.35615 5.45729 -2.22771 0 9.1 -1.3734 1.34637 5.44481 -2.20675 -1.77636e-015 16.6717 -2.5162 0.0532615 -2.00659 0.66959 -1.77636e-015 9.6179 1.685 0.0532637 -2.00654 0.669588 -1.77636e-015 7.59293 2.585 0.0533135 -2.00648 0.669589 4.5704 10.946 -2.628 23.1067 -1.3895 -3.41915 10.5924 -0.5246 -2.2321 -58.95 -58.1013 -54.8578 27.8415 -0.0001 1.42109e-014 -10.2006 -8.20616 -102.42 28.3288 1.42109e-014 -7.10543e-015 -40.9392 -76.4149 -41.2988 2.4661 -1.575 2.6824 7.78879 14.7481 19.2462 3.2298 -1.8647 1.8647 -0.0302434 1.35254 5.88441 9.1093 -0.5171 2.2601 -81.125 -5.79743 8.04466 3.6764 1.42109e-014 0 -81.5663 -4.99765 5.79203 9.5334 0 0 -75.269 -7.11001 3.08785 3.6982 0 -1.42109e-014 -66.0645 -3.48036 5.35044 9.1045 -0.0439 -1.8651 -83.9991 -8.1943 1.92593 3.154 1.42109e-014 0 -62.3491 -3.13828 5.18487 8.0778 -0.4887 -3.8061 -86.0219 -11.3373 -1.48842 3.6 -1.42109e-014 0 -96.0403 -6.47027 5.8229 -4.57 10.9462 -2.628 -15.2986 -0.857803 -18.3564 -10.5928 -0.5248 -2.2321 79.3108 -42.2739 73.9862 -27.8415 1.42109e-014 0 10.0646 -8.23462 101.469 -28.3288 0 0.0001 47.0448 -68.9177 50.66 -8.0767 -0.4885 -3.806 70.0298 -10.9988 9.62009 -3.6 -2.84217e-014 0.0001 84.8242 -1.00006 -2.93689 -9.1036 -0.0439 -1.8651 75.0057 -4.77372 0.545608 -3.154 2.84217e-014 1.42109e-014 55.7688 0.392485 -2.43769 -9.5325 1.42109e-014 1.42109e-014 70.979 -3.95955 -2.64754 -3.6982 -2.84217e-014 -1.42109e-014 63.3568 0.0558419 -2.63552 -9.1083 -0.5168 2.2601 81.9305 1.15994 -3.05771 -3.6764 2.84217e-014 0 80.7807 -0.794685 -2.91075 -2.4648 -1.5727 2.6826 -8.66613 12.3274 -12.5072 -3.2298 -1.8647 1.8647 -0.882577 1.80023 -7.30375 8.2078 -6.7517 -1.5996 17.0194 -29.4772 19.5567 -7.10543e-015 -44.3705 0.2846 -0.597868 78.2461 -1.27492 -7.10543e-015 -44.4279 -2.9822 6.14344 4.66339 -2.93404 -8.2078 -6.7517 -1.5996 -4.665 -36.7544 -7.96875 -6.66134e-016 -44.3705 0.2862 2.94031 46.9316 -7.18728 -4.44089e-016 -44.4277 -2.9838 -3.35593 -4.08232 2.22781 
6.09456 98.801 -17.536 1.27399 11.7103 8.79873 0 10.1816 0.1315 -1.89628 13.8713 -1.19882 0 10.0835 -1.0008 1.29183 3.75262 -2.708 -1.77636e-015 9.1 -1.3734 1.34981 3.77558 -2.63326 0 16.6717 -2.5162 -0.338006 -2.41921 0.907101 0 9.6179 1.685 -0.338008 -2.41921 0.907103 0 7.59293 2.585 -0.337912 -2.41899 0.907127 4.5704 10.946 -2.628 31.5663 -1.53373 -0.984403 10.5924 -0.5246 -2.2321 -50.4802 -62.8671 -43.6644 27.8415 -0.0001 -1.42109e-014 -9.24387 -8.35784 -95.7848 28.3288 -2.84217e-014 0 -50.8248 -76.5139 -50.749 2.4661 -1.575 2.6824 8.56577 12.9915 18.24 3.2298 -1.8647 1.8647 -0.00212742 1.39542 5.91885 9.1093 -0.5171 2.2601 -79.3193 -5.69228 7.3659 3.6764 1.42109e-014 -1.42109e-014 -82.645 -5.10679 5.8072 9.5334 -2.84217e-014 -2.84217e-014 -74.0263 -7.03577 2.66151 3.6982 -1.42109e-014 0 -67.2414 -3.59089 5.39825 9.1045 -0.0439 -1.8651 -83.339 -8.14525 1.79409 3.154 1.42109e-014 0 -63.1429 -3.21043 5.2221 8.0778 -0.4887 -3.8061 -85.8365 -11.3376 -1.30313 3.6 -1.42109e-014 -2.84217e-014 -95.9061 -6.45666 5.82435 -4.57 10.9462 -2.628 -28.1415 0.881665 -20.8447 -10.5928 -0.5248 -2.2321 85.424 -44.9279 74.0412 -27.8415 0 1.42109e-014 8.82893 -8.38913 92.9372 -28.3288 0 0.0001 41.4352 -69.3936 46.6365 -8.0767 -0.4885 -3.806 71.2477 -11.4342 10.0352 -3.6 0 0.0001 85.0579 -1.01207 -2.93798 -9.1036 -0.0439 -1.8651 75.9461 -4.85228 0.525292 -3.154 0 -2.84217e-014 56.4237 0.364507 -2.45652 -9.5325 0 0 71.9246 -4.03398 -2.71793 -3.6982 0 -1.42109e-014 63.9374 0.0290609 -2.64879 -9.1083 -0.5168 2.2601 81.9712 1.2778 -4.19105 -3.6764 0 -1.42109e-014 80.9875 -0.805208 -2.91244 -2.4648 -1.5727 2.6826 -7.97969 12.0121 -11.7292 -3.2298 -1.8647 1.8647 -0.898196 1.81126 -7.29324 8.2078 -6.7517 -1.5996 18.5864 -34.332 20.3111 0 -44.3705 0.2846 149.968 87.4708 -146.944 0 -44.4279 -2.9822 9.58542 1.38228 -1.61798 -8.2078 -6.7517 -1.5996 -5.84759 -31.3695 -8.72431 0 -44.3705 0.2862 1.85358 44.556 -6.76662 0 -44.4277 -2.9838 -4.76911 -11.7049 2.00307 
